<?xml version="1.0" encoding="utf-8"?>
<!-- Generator: Adobe Illustrator 19.1.0, SVG Export Plug-In . SVG Version: 6.00 Build 0)  -->
<svg version="1.1" id="Layer_1" xmlns="http://www.w3.org/2000/svg" xmlns:xlink="http://www.w3.org/1999/xlink" x="0px" y="0px"
	 viewBox="0 0 64 64" style="enable-background:new 0 0 64 64;" xml:space="preserve">
<style type="text/css">
	.st0{fill:#020202;}
</style>
<g>
	<path class="st0" d="M25.7,48.5c5.8,0,11.1-2.1,15.2-5.5l18.4,18.4c0.4,0.4,0.9,0.6,1.5,0.6s1.1-0.2,1.5-0.6c0.8-0.8,0.8-2.2,0-3.1
		L43.9,39.9c3.4-4.1,5.5-9.4,5.5-15.2C49.5,11.6,38.8,1,25.7,1C12.7,1,2,11.7,2,24.7C2,37.9,12.7,48.5,25.7,48.5z M25.7,5.3
		c10.7,0,19.4,8.7,19.4,19.4c0,10.7-8.7,19.4-19.4,19.4S6.3,35.4,6.3,24.7C6.3,14.1,15,5.3,25.7,5.3z"/>
</g>
</svg>
